<svg width="504" height="142" viewBox="0 0 504 142" fill="none" xmlns="http://www.w3.org/2000/svg">
<path d="M133.194 55.1528L160.561 10.2916H110.514L65.0737 83.8815C93.7516 81.3384 117.564 67.292 133.194 55.1528Z" fill="#00AAD1"></path>
<path d="M87.3364 47.8812C87.3364 47.8812 99.729 54.9938 115.617 49.6892C131.505 44.3845 147.254 30.9341 154.861 19.1327C154.861 19.1327 140.184 46.2719 119.49 54.5567C102.073 61.5303 87.8726 55.6495 83.6821 53.7223L87.3165 47.8812H87.3364Z" fill="url(#paint0_linear_9_200)"></path>
<path d="M24.4203 54.6758C24.4203 54.6758 -21.5755 86.6628 12.683 104.285C46.9416 121.908 127.454 107.385 203.24 0L172.497 6.09937L184.095 15.0001C184.095 15.0001 120.92 90.2588 55.0842 90.2588C-5.92582 90.2588 24.4203 54.6758 24.4203 54.6758Z" fill="#FF6A5A"></path>
<path d="M160.799 91.749L157.879 122.464C157.601 125.643 159.488 127.67 162.785 127.67L161.633 140.385H129.559L130.711 127.67C133.849 127.67 136.272 125.643 136.55 122.464L139.469 91.749H160.799ZM151.862 69.1198C160.283 69.1198 162.189 73.6098 161.712 79.1132C161.236 84.6165 158.555 89.1066 150.134 89.1066C141.713 89.1066 139.807 84.7556 140.284 79.1132C140.76 73.4708 143.421 69.1198 151.862 69.1198Z" fill="#00AAD1"></path>
<path d="M203.598 40.3911L200.162 78.2986C205.623 70.7886 213.17 66.4575 221.968 66.4575C238.233 66.4575 247.746 81.4774 245.721 104.007C243.675 126.537 231.441 141.557 215.176 141.557C206.219 141.557 199.467 137.087 195.395 129.418C194.025 136.352 190.271 141.557 184.611 141.557C178.951 141.557 172.258 141.259 167.83 140.683L169.081 126.815C172.139 127.531 174.562 125.524 174.92 121.61L182.268 40.4308L203.598 40.3712V40.3911ZM208.781 124.809C216.387 124.809 222.187 118.312 223.497 103.868C224.788 89.5636 220.141 83.2059 212.535 83.2059C204.928 83.2059 199.129 89.5636 197.838 103.868C196.527 118.312 201.016 124.809 208.761 124.809H208.781Z" fill="#00AAD1"></path>
<path d="M250.308 140.544L254.876 89.9808C255.213 86.2258 253.883 84.4973 251.798 84.4973C251.202 84.4973 250.606 84.4973 249.99 84.7953L251.519 67.888C253.247 67.0138 256.266 66.4376 262.244 66.4376C270.903 66.4376 276.444 71.0668 277.139 78.1397C281.071 70.9079 292.213 66.4376 306.83 66.4376L303.533 87.9543C301.17 87.6563 298.806 87.5172 296.721 87.5172C284.944 87.5172 276.801 91.7093 275.411 98.7822L271.598 140.822L250.288 140.544H250.308Z" fill="#00AAD1"></path>
<path d="M350.264 141.557C342.518 141.557 338.646 136.352 337.633 129.557C333.541 136.789 325.359 141.557 317.157 141.557C304.625 141.557 297.198 133.034 298.349 120.319C299.64 106.014 310.186 96.6365 324.962 96.6365C330.185 96.6365 335.587 97.7888 339.619 99.5173L339.658 99.0802C340.294 92.0073 334.912 85.8285 326.154 86.6232C322.559 86.9411 319.222 87.9543 314.674 89.9808L317.276 73.7887C319.401 72.0999 325.578 66.5569 336.501 66.4377C353.064 66.2787 363.312 75.1 361.703 92.8815L359.657 115.411C359.34 119.027 357.175 129.776 362.855 129.001C363.59 128.902 366.807 127.59 367.999 127.054L366.946 136.908C362.378 139.65 355.507 141.557 350.303 141.557H350.264ZM338.348 113.246L338.268 114.12L338.745 108.776C336.381 108.478 334.018 108.199 331.774 108.339C325.657 108.339 321.208 111.378 320.791 115.988C320.374 120.597 323.572 123.061 327.762 123.061C332.688 123.061 336.918 119.166 338.348 113.246Z" fill="#00AAD1"></path>
<path d="M373.56 140.326L377.929 88.7292C378.267 84.9742 378.008 81.3385 374.592 81.3583C373.997 81.3583 371.177 82.2921 370.541 82.5901L372.07 71.2655C373.798 70.3914 379.339 65.8417 385.257 65.186C394.274 64.1927 399.596 69.8152 400.152 77.0272C405.733 69.6563 414.809 65.0271 424.362 65.0271C436.596 65.0271 445.493 73.6894 444.321 86.8418L441.839 114.279C441.521 117.756 443.288 119.763 446.406 119.763C447.3 119.763 448.353 119.623 449.445 119.186L447.975 135.359C443.388 138.239 437.112 140.127 431.889 140.127C421.899 140.127 418.582 130.59 419.476 120.776L421.462 98.822C422.217 90.5968 418.523 85.2524 411.949 85.2524C405.376 85.2524 399.676 90.5968 398.345 98.822L394.095 140.266L373.56 140.306V140.326Z" fill="#00AAD1"></path>
<path d="M455.085 68.9609H464.379L467.04 53.4442H484.855L483.604 68.9609L497.605 68.9211L497.109 82.749H482.055L479.334 116.385C478.976 120.438 481.26 124.153 487.119 123.14C488.887 122.842 495.619 119.862 499.889 114.994L504 121.372C492.322 140.306 480.605 141.557 473.892 141.557C462.552 141.557 455.879 132.895 456.932 121.332L461.48 82.749H453.297L455.065 68.9609H455.085Z" fill="#00AAD1"></path>
<path d="M56.1368 83.7821H57.249C88.5683 83.7821 114.823 69.378 132.161 56.3846L154.801 19.2519C143.382 37.2917 127.295 57.4376 102.629 57.4376C63.6638 57.4376 51.4101 9.77502 51.4101 9.77502H1.36279L46.2068 83.2854C49.1262 83.5635 52.423 83.7424 56.1567 83.7821H56.1368Z" fill="#00AAD1"></path>
<path d="M154.801 19.2519C156.867 15.9737 158.793 12.775 160.581 9.77502L154.801 19.2519Z" fill="#00AAD1"></path>
<path d="M55.1441 84.2987H56.2563C67.8943 84.2987 78.8173 82.3119 88.8466 79.1529L1.34326 9.77502L46.5844 83.9212C49.1464 84.1198 52.0062 84.2589 55.164 84.2788L55.1441 84.2987Z" fill="#42F481"></path>
<path d="M64.7163 113.643L80.9817 140.305L106.76 98.5039C92.6991 105.676 78.38 110.802 64.7163 113.623V113.643Z" fill="#42F481"></path>
<defs>
<linearGradient id="paint0_linear_9_200" x1="83.702" y1="38.5037" x2="154.861" y2="38.5037" gradientUnits="userSpaceOnUse">
<stop offset="0.02" stop-color="#0082BA"></stop>
<stop offset="1" stop-color="#00ADEE"></stop>
</linearGradient>
</defs>
</svg>