<svg width="505" height="142" viewBox="0 0 505 142" fill="none" xmlns="http://www.w3.org/2000/svg">
<path d="M64.6011 113.7L80.9768 140.917L106.912 98.4115C92.7618 105.668 78.3535 110.837 64.6011 113.7Z" fill="#F2F2F2"></path>
<path d="M133.284 55.1898L160.669 10.2982H110.588L65.1177 83.9379C93.815 81.3931 117.643 67.3372 133.284 55.1898Z" fill="#F2F2F2"></path>
<path d="M87.3965 47.8936C87.3965 47.8936 99.7975 55.0111 115.696 49.7028C131.595 44.3945 147.355 30.935 154.966 19.1256C154.966 19.1256 140.28 46.2833 119.572 54.5737C102.143 61.552 87.9331 55.6671 83.7397 53.7387L87.3766 47.8936H87.3965Z" fill="url(#paint0_linear_9_219)"></path>
<path d="M24.4369 54.7128C24.4369 54.7128 -21.5902 86.7215 12.6916 104.356C46.9734 121.991 127.541 107.457 203.378 0L172.614 6.10352L184.22 15.0102C184.22 15.0102 121.002 90.3199 55.1215 90.3199C-5.92984 90.3199 24.4369 54.7128 24.4369 54.7128Z" fill="white"></path>
<path d="M160.908 91.7911L157.987 122.527C157.709 125.708 159.597 127.736 162.896 127.736L161.743 140.46H129.647L130.8 127.736C133.94 127.736 136.365 125.708 136.643 122.527L139.564 91.7911H160.908ZM151.965 69.1664C160.392 69.1664 162.3 73.6595 161.823 79.1666C161.346 84.6737 158.663 89.1668 150.236 89.1668C141.81 89.1668 139.902 84.8128 140.379 79.1666C140.856 73.5203 143.519 69.1664 151.965 69.1664Z" fill="white"></path>
<path d="M203.736 40.3984L200.297 78.3316C205.763 70.8165 213.315 66.4825 222.119 66.4825C238.395 66.4825 247.914 81.5126 245.887 104.058C243.84 126.603 231.598 141.633 215.322 141.633C206.359 141.633 199.602 137.16 195.528 129.486C194.157 136.424 190.4 141.633 184.736 141.633C179.073 141.633 172.375 141.335 167.943 140.758L169.195 126.881C172.256 127.597 174.68 125.589 175.038 121.673L182.391 40.4382L203.736 40.3785V40.3984ZM208.923 124.873C216.534 124.873 222.337 118.372 223.649 103.919C224.941 89.6042 220.29 83.2422 212.679 83.2422C205.067 83.2422 199.264 89.6042 197.972 103.919C196.661 118.372 201.152 124.873 208.903 124.873H208.923Z" fill="white"></path>
<path d="M250.479 140.639L255.05 90.0416C255.387 86.284 254.056 84.5544 251.969 84.5544C251.373 84.5544 250.777 84.5543 250.161 84.8526L251.691 67.9338C253.42 67.059 256.441 66.4824 262.423 66.4824C271.087 66.4824 276.632 71.1147 277.328 78.1924C281.263 70.9556 292.412 66.4824 307.039 66.4824L303.74 88.0137C301.375 87.7154 299.01 87.5763 296.923 87.5763C285.138 87.5763 276.99 91.7712 275.599 98.8489L271.783 140.917L250.459 140.639H250.479Z" fill="white"></path>
<path d="M350.502 141.633C342.751 141.633 338.876 136.424 337.862 129.625C333.768 136.862 325.58 141.633 317.372 141.633C304.832 141.633 297.4 133.104 298.552 120.38C299.844 106.066 310.397 96.6819 325.183 96.6819C330.409 96.6819 335.815 97.835 339.849 99.5646L339.889 99.1272C340.525 92.0496 335.139 85.8665 326.375 86.6618C322.778 86.9799 319.439 87.9938 314.888 90.0217L317.492 73.8186C319.618 72.1287 325.799 66.5818 336.729 66.4626C353.304 66.3035 363.558 75.1307 361.949 92.9243L359.902 115.47C359.584 119.088 357.418 129.844 363.101 129.068C363.837 128.969 367.056 127.657 368.249 127.12L367.195 136.981C362.624 139.725 355.748 141.633 350.541 141.633H350.502ZM338.577 113.302L338.498 114.177L338.975 108.829C336.61 108.531 334.245 108.253 331.999 108.392C325.878 108.392 321.427 111.434 321.009 116.046C320.592 120.659 323.792 123.124 327.985 123.124C332.913 123.124 337.147 119.227 338.577 113.302Z" fill="white"></path>
<path d="M373.813 140.4L378.185 88.7692C378.523 85.0117 378.265 81.3734 374.847 81.3933C374.25 81.3933 371.428 82.3277 370.792 82.6259L372.323 71.2937C374.052 70.4189 379.596 65.8661 385.519 65.21C394.541 64.216 399.867 69.8424 400.424 77.0592C406.008 69.6833 415.091 65.051 424.65 65.051C436.892 65.051 445.795 73.7192 444.623 86.8805L442.138 114.336C441.82 117.816 443.589 119.824 446.709 119.824C447.604 119.824 448.657 119.684 449.75 119.247L448.279 135.43C443.688 138.313 437.408 140.202 432.182 140.202C422.185 140.202 418.866 130.659 419.761 120.837L421.748 98.8688C422.503 90.6381 418.807 85.29 412.229 85.29C405.651 85.29 399.947 90.6381 398.615 98.8688L394.362 140.341L373.813 140.381V140.4Z" fill="white"></path>
<path d="M455.394 68.9875H464.694L467.357 53.4603H485.184L483.932 68.9875L497.943 68.9477L497.446 82.785H482.382L479.659 116.444C479.301 120.499 481.587 124.217 487.45 123.203C489.218 122.905 495.955 119.923 500.228 115.052L504.342 121.434C492.656 140.381 480.931 141.633 474.214 141.633C462.866 141.633 456.189 132.965 457.242 121.394L461.793 82.785H453.605L455.374 68.9875H455.394Z" fill="white"></path>
<path d="M56.1749 83.8187H57.2878C88.6283 83.8187 114.901 69.4048 132.251 56.4026L154.906 19.2448C143.479 37.2968 127.382 57.4563 102.699 57.4563C63.7069 57.4563 51.445 9.76147 51.445 9.76147H1.36377L46.2381 83.3216C49.1595 83.6 52.4585 83.7789 56.1947 83.8187H56.1749Z" fill="white"></path>
<path d="M154.887 19.2648C156.954 15.9844 158.881 12.7835 160.67 9.78149L154.887 19.2648Z" fill="white"></path>
<path d="M64.5615 113.442L80.9969 140.4L106.395 98.7694C92.3844 105.768 78.1351 110.758 64.5615 113.442Z" fill="white"></path>
<path d="M55.1814 84.3356H56.2943C67.9402 84.3356 78.8706 82.3474 88.9067 79.1863L1.32422 9.76147L46.596 83.9578C49.1597 84.1567 52.0215 84.2958 55.1814 84.3157V84.3356Z" fill="#D6E2E8"></path>
<path d="M64.7607 113.72L81.0371 140.4L106.833 98.5704C92.7625 105.748 78.4337 110.877 64.7607 113.7V113.72Z" fill="#D6E2E8"></path>
<defs>
<linearGradient id="paint0_linear_9_219" x1="83.7596" y1="38.5097" x2="154.966" y2="38.5097" gradientUnits="userSpaceOnUse">
<stop offset="0.02" stop-color="#A6A8AB"></stop>
<stop offset="1" stop-color="white"></stop>
</linearGradient>
</defs>
</svg>